<svg width="188" height="71" viewBox="0 0 188 71" fill="none" xmlns="http://www.w3.org/2000/svg">
<path fill-rule="evenodd" clip-rule="evenodd" d="M61.5592 32.7532C58.7337 34.8597 55.2296 36.1066 51.4343 36.1066C42.0696 36.1066 34.478 28.515 34.478 19.1502C34.478 15.1829 35.8405 11.5339 38.1231 8.6454C35.8621 8.12223 33.5067 7.8457 31.0867 7.8457C13.918 7.8457 0 21.7637 0 38.9324C0 56.1011 13.918 70.0191 31.0867 70.0191C48.2554 70.0191 62.1734 56.1011 62.1734 38.9324C62.1734 36.8166 61.962 34.7502 61.5592 32.7532Z" fill="#664DFF"/>
<g filter="url(#filter0_d_1411_135)">
<circle cx="51.4343" cy="19.1304" r="14.1303" transform="rotate(-90 51.4343 19.1304)" fill="url(#paint0_linear_1411_135)"/>
</g>
<path d="M178.042 53.6046L171.576 43.883L165.879 53.6046H157.107L167.281 37.4622L156.881 21.8623H165.879L172.255 31.4483L177.861 21.8623H186.634L176.55 37.8691L187.04 53.6046H178.042Z" fill="white"/>
<path d="M152.996 21.8623V53.6046H145.264V21.8623H152.996Z" fill="white"/>
<path d="M139.659 53.6046H131.927L118.995 34.0257V53.6046H111.262V21.8623H118.995L131.927 41.5317V21.8623H139.659V53.6046Z" fill="white"/>
<path d="M90.7279 53.9212C87.7436 53.9212 85.0004 53.2279 82.4984 51.8412C80.0266 50.4545 78.0521 48.5253 76.575 46.0534C75.128 43.5514 74.4046 40.748 74.4046 37.6431C74.4046 34.5382 75.128 31.7498 76.575 29.2779C78.0521 26.8061 80.0266 24.8768 82.4984 23.4901C85.0004 22.1035 87.7436 21.4102 90.7279 21.4102C93.7122 21.4102 96.4403 22.1035 98.9122 23.4901C101.414 24.8768 103.374 26.8061 104.79 29.2779C106.237 31.7498 106.961 34.5382 106.961 37.6431C106.961 40.748 106.237 43.5514 104.79 46.0534C103.343 48.5253 101.384 50.4545 98.9122 51.8412C96.4403 53.2279 93.7122 53.9212 90.7279 53.9212ZM90.7279 46.8673C93.2601 46.8673 95.2798 46.0233 96.787 44.3352C98.3244 42.6471 99.0931 40.4164 99.0931 37.6431C99.0931 34.8396 98.3244 32.6089 96.787 30.9509C95.2798 29.2628 93.2601 28.4188 90.7279 28.4188C88.1656 28.4188 86.1158 29.2478 84.5784 30.9057C83.0712 32.5637 82.3175 34.8095 82.3175 37.6431C82.3175 40.4465 83.0712 42.6923 84.5784 44.3804C86.1158 46.0384 88.1656 46.8673 90.7279 46.8673Z" fill="white"/>
<defs>
<filter id="filter0_d_1411_135" x="12.304" y="0" width="58.2606" height="58.2607" filterUnits="userSpaceOnUse" color-interpolation-filters="sRGB">
<feFlood flood-opacity="0" result="BackgroundImageFix"/>
<feColorMatrix in="SourceAlpha" type="matrix" values="0 0 0 0 0 0 0 0 0 0 0 0 0 0 0 0 0 0 127 0" result="hardAlpha"/>
<feOffset dx="-10" dy="10"/>
<feGaussianBlur stdDeviation="7.5"/>
<feComposite in2="hardAlpha" operator="out"/>
<feColorMatrix type="matrix" values="0 0 0 0 0.0455108 0 0 0 0 0.0654829 0 0 0 0 0.18931 0 0 0 0.5 0"/>
<feBlend mode="normal" in2="BackgroundImageFix" result="effect1_dropShadow_1411_135"/>
<feBlend mode="normal" in="SourceGraphic" in2="effect1_dropShadow_1411_135" result="shape"/>
</filter>
<linearGradient id="paint0_linear_1411_135" x1="51.5742" y1="33.1773" x2="50.468" y2="4.57219" gradientUnits="userSpaceOnUse">
<stop stop-color="#5599FF"/>
<stop offset="0.836794" stop-color="#7241FF"/>
<stop offset="1" stop-color="#8E66FF"/>
</linearGradient>
</defs>
</svg>
