<svg width="30" height="30" viewBox="0 0 30 30" fill="none" xmlns="http://www.w3.org/2000/svg">
<path d="M5.91003 7.58734C5.91003 7.58734 6.97892 16.1821 8.58192 19.1435C8.58192 19.1435 10.3187 23.1737 14.4824 26.4245L17.1099 28.7847L17.6993 29.3244C17.6993 29.3244 18.05 28.9707 18.2678 28.7847C18.8923 28.2515 23.2553 24.2869 23.2553 24.2869C23.2553 24.2869 25.6378 22.0159 26.9739 18.8318C28.3101 15.6478 29.4231 7.58734 29.4231 7.58734C29.4231 7.58734 21.6856 5.17078 17.6665 2.86621C17.6665 2.86621 12.2335 5.66075 5.91003 7.58734Z" fill="white"/>
<path d="M16.3523 2.19932L13.4634 0.880015C13.2911 0.789146 13.1049 0.727074 12.9125 0.696357C12.2845 0.597596 11.7858 0.872336 11.6134 0.978349L0.576904 5.17197C0.576904 5.17197 1.08884 10.2041 1.91285 13.4103C2.73685 16.6165 4.49578 21.4262 9.9733 24.4989C9.9733 24.4989 6.38846 20.4168 5.38719 15.9783C5.38719 15.9783 3.98449 10.8274 3.62826 6.84174L12.2749 3.47148C12.2749 3.47148 12.494 3.36483 12.6757 3.47895C12.8131 3.57067 12.9445 3.67093 13.069 3.7795L16.3523 2.19932Z" fill="white"/>
<path d="M26.0293 15.3198C26.0289 16.9 24.748 18.1807 23.1678 18.1804H15.9017C15.7647 18.1403 15.6438 18.0582 15.5559 17.9458C15.3371 17.6593 15.3804 17.2101 15.689 16.9369L19.0972 13.5286C19.4818 13.6477 19.8901 13.4327 20.0091 13.0481C20.1281 12.6635 19.9131 12.2552 19.5285 12.1362C19.1439 12.0171 18.7357 12.2322 18.6166 12.6168C18.5676 12.775 18.574 12.9455 18.6348 13.0997L13.5534 18.1804H12.3802C12.3375 18.1804 12.2961 18.1804 12.2548 18.1777L15.3959 15.0369C15.7837 15.1449 16.1858 14.9181 16.2939 14.5301C16.4021 14.1423 16.1751 13.7402 15.7871 13.6321C15.3993 13.5239 14.9973 13.7509 14.8891 14.1389C14.8447 14.2985 14.8558 14.4683 14.9209 14.6206L11.7042 17.837C11.6155 17.898 11.5139 17.9375 11.4075 17.9526C11.3623 17.959 11.3166 17.9609 11.2712 17.9582C9.81431 17.3458 9.1296 15.6683 9.742 14.2114C10.1885 13.1494 11.2283 12.4585 12.3804 12.4587C12.4179 12.4587 12.4551 12.4587 12.492 12.4608C12.9794 10.1784 15.0073 8.46729 17.4349 8.46729C19.645 8.46729 21.5242 9.88599 22.2107 11.8625L17.9833 16.09C17.8942 16.0525 17.7984 16.0331 17.7016 16.0333C17.2991 16.0335 16.9731 16.3599 16.9733 16.7624C16.9735 17.1649 17.2999 17.4908 17.7024 17.4906C18.1049 17.4904 18.4309 17.164 18.4306 16.7615C18.4306 16.6941 18.4213 16.6269 18.4027 16.5621L22.4011 12.5634C23.9252 12.1413 25.5031 13.0344 25.9254 14.5587C25.9941 14.8066 26.0291 15.0625 26.0293 15.3198Z" fill="url(#paint0_linear_891_27878)"/>
<defs>
<linearGradient id="paint0_linear_891_27878" x1="17.8552" y1="18.1518" x2="17.6314" y2="8.3106" gradientUnits="userSpaceOnUse">
<stop stop-color="#5599FF"/>
<stop offset="0.836794" stop-color="#7241FF"/>
<stop offset="1" stop-color="#8E66FF"/>
</linearGradient>
</defs>
</svg>
